<?xml version="1.0" standalone="no"?>
<!DOCTYPE svg PUBLIC "-//W3C//DTD SVG 20010904//EN"
 "http://www.w3.org/TR/2001/REC-SVG-20010904/DTD/svg10.dtd">
<svg version="1.0" xmlns="http://www.w3.org/2000/svg"
 width="1400.000000pt" height="400.000000pt" viewBox="0 0 1400.000000 400.000000"
 preserveAspectRatio="xMidYMid meet">

<g transform="translate(0.000000,400.000000) scale(0.100000,-0.100000)"
fill="#000000" stroke="none">
<path d="M1754 3490 c-234 -32 -371 -149 -405 -347 -6 -38 -7 -455 -1 -1198
l8 -1140 23 -59 c57 -143 191 -221 340 -197 105 17 139 42 379 273 182 176
232 220 270 232 36 13 92 16 262 16 248 0 338 12 499 66 127 42 221 91 326
168 250 184 427 456 492 756 28 130 25 455 -5 562 -77 277 -215 478 -452 656
-113 84 -318 172 -477 203 -70 14 -1166 21 -1259 9z m1301 -423 c265 -92 444
-300 501 -580 22 -105 14 -287 -15 -402 -68 -260 -248 -470 -485 -565 -136
-55 -187 -62 -484 -65 -149 -2 -287 -7 -305 -10 -66 -15 -112 -50 -309 -241
l-203 -196 -6 398 c-4 220 -7 655 -8 968 -1 561 -1 570 20 614 23 47 77 89
131 102 18 5 269 8 558 6 l525 -2 80 -27z"/>
<path d="M3078 2662 c-23 -14 -319 -364 -383 -452 -11 -15 -44 -53 -73 -85
-46 -50 -55 -55 -69 -43 -10 7 -75 69 -146 138 -71 69 -139 130 -150 137 -39
22 -102 16 -137 -13 -38 -32 -70 -97 -70 -140 0 -72 31 -113 216 -290 256
-245 269 -255 321 -253 28 1 28 1 -4 9 -37 9 -70 28 -112 68 -16 15 -73 68
-127 117 -194 179 -259 248 -272 291 -17 60 -15 83 16 139 20 37 36 53 64 63
68 26 92 13 228 -119 69 -67 140 -133 159 -147 l34 -27 65 70 c35 39 72 82 81
96 9 14 37 50 63 80 72 82 87 101 121 143 18 21 41 49 52 62 11 12 40 48 65
79 24 31 57 63 73 72 59 30 141 -7 169 -77 15 -36 17 -92 5 -115 -6 -11 -10
-23 -9 -27 1 -5 -3 -8 -8 -8 -5 0 -10 -4 -10 -10 0 -5 -9 -19 -21 -31 -11 -11
-18 -23 -15 -26 19 -20 86 102 86 157 0 40 -43 117 -81 144 -31 21 -97 20
-131 -2z"/>
<path d="M3166 2316 c-14 -19 -32 -40 -39 -48 -7 -7 -35 -40 -61 -73 -51 -63
-86 -104 -205 -243 -39 -45 -83 -99 -98 -120 -34 -45 -68 -85 -110 -129 -17
-18 -28 -33 -24 -33 13 0 92 89 236 265 77 94 180 220 230 280 91 110 110 135
102 135 -3 0 -16 -15 -31 -34z"/>
<path d="M5480 2205 l0 -665 120 0 120 0 0 665 0 665 -120 0 -119 0 -1 -665z"/>
<path d="M9390 2205 l0 -665 115 0 115 0 0 273 c0 266 1 273 24 324 62 132
253 146 316 22 19 -35 20 -59 20 -329 l0 -290 119 0 120 0 0 258 c1 311 -8
415 -44 488 -75 153 -280 222 -443 149 -33 -15 -69 -36 -78 -46 -9 -11 -21
-19 -26 -19 -4 0 -8 113 -8 250 l0 250 -115 0 -115 0 0 -665z"/>
<path d="M12185 2205 l0 -665 118 0 117 0 0 205 c0 163 3 205 13 205 7 0 78
-92 157 -205 l144 -205 138 0 137 0 -185 266 c-162 234 -183 269 -171 283 8 9
82 96 165 194 l152 177 -137 0 -138 -1 -128 -159 c-70 -88 -132 -160 -137
-160 -6 0 -10 138 -10 365 l0 365 -117 0 -118 0 0 -665z"/>
<path d="M7873 2840 c-64 -39 -87 -106 -58 -171 27 -58 72 -83 142 -77 49 4
61 10 90 41 28 31 33 44 33 84 0 30 -7 60 -20 81 -36 59 -126 80 -187 42z"/>
<path d="M8684 2840 c-205 -30 -357 -167 -435 -392 -73 -215 -66 -483 18 -641
40 -76 156 -188 234 -225 169 -83 363 -81 531 4 73 37 184 152 231 242 21 40
37 72 35 72 -2 0 -50 14 -108 30 -96 28 -106 29 -115 14 -54 -90 -143 -164
-219 -185 -56 -15 -183 -7 -226 16 -68 35 -118 84 -149 148 -71 146 -62 373
22 530 96 182 303 221 452 85 31 -28 65 -68 75 -89 11 -21 24 -40 28 -43 7 -4
202 31 209 38 5 5 -27 98 -52 147 -39 76 -139 173 -217 209 -91 43 -201 57
-314 40z"/>
<path d="M4500 2176 l0 -636 123 0 122 0 0 206 0 207 101 -2 c260 -5 431 92
504 284 32 84 33 235 1 316 -45 118 -120 197 -221 236 -38 14 -92 17 -337 21
l-293 4 0 -636z m491 404 c57 -16 102 -51 127 -100 56 -112 3 -232 -126 -280
-44 -17 -74 -20 -151 -18 l-96 3 -3 203 -2 202 107 0 c60 0 124 -5 144 -10z"/>
<path d="M6140 2462 c-114 -30 -201 -97 -251 -195 l-20 -38 43 -19 c24 -10 66
-27 93 -38 l51 -20 22 34 c12 18 41 46 64 61 36 24 52 28 114 28 58 0 78 -4
100 -21 45 -33 67 -70 74 -124 6 -49 5 -51 -14 -45 -142 40 -205 45 -299 20
-166 -43 -272 -150 -284 -284 -17 -187 126 -303 356 -288 71 4 95 11 162 44
l79 39 0 -38 0 -38 116 0 115 0 -3 328 c-3 312 -5 330 -26 383 -71 178 -279
267 -492 211z m265 -536 c30 -13 35 -20 35 -49 0 -28 -8 -42 -44 -75 -106 -98
-216 -116 -292 -50 -58 51 -42 118 37 158 81 42 187 48 264 16z"/>
<path d="M7070 2467 c-106 -31 -173 -81 -232 -171 -61 -95 -81 -176 -76 -304
8 -167 60 -277 171 -358 148 -109 349 -111 470 -4 21 18 39 31 41 29 8 -10
-14 -151 -29 -181 -65 -127 -220 -166 -351 -86 -31 18 -71 50 -90 70 l-33 37
-61 -67 c-33 -37 -60 -72 -60 -79 0 -24 101 -113 162 -141 238 -112 535 -35
637 167 48 94 51 125 51 618 l0 463 -116 0 -117 0 6 -45 c4 -25 4 -45 1 -45
-3 0 -22 13 -42 30 -86 69 -227 97 -332 67z m235 -216 c112 -50 170 -200 130
-336 -52 -180 -267 -223 -393 -79 -45 50 -62 100 -62 176 0 106 54 203 134
239 53 24 139 24 191 0z"/>
<path d="M10630 2466 c-194 -56 -320 -240 -320 -466 1 -234 119 -408 321 -471
176 -55 393 22 500 178 17 24 29 46 27 49 -3 2 -45 22 -94 43 l-89 39 -48 -48
c-60 -61 -119 -85 -188 -77 -97 12 -174 81 -194 175 l-7 32 318 0 317 0 -6 95
c-14 209 -109 368 -263 437 -60 27 -205 34 -274 14z m175 -197 c51 -14 100
-65 115 -118 6 -24 9 -45 7 -47 -3 -3 -90 -5 -193 -5 l-189 0 3 23 c6 49 51
105 104 132 57 28 92 32 153 15z"/>
<path d="M11568 2461 c-196 -63 -317 -246 -318 -481 0 -176 70 -310 215 -406
197 -131 496 -49 617 169 l27 48 -26 10 c-15 5 -57 23 -94 39 -37 17 -71 30
-76 30 -4 -1 -20 -19 -36 -41 -15 -22 -49 -53 -75 -70 -43 -28 -53 -30 -122
-27 -89 4 -125 24 -167 96 -24 40 -28 60 -31 143 -5 105 5 150 44 211 71 111
238 101 345 -20 l44 -51 87 50 88 50 -15 29 c-23 45 -116 141 -170 176 -101
64 -225 80 -337 45z"/>
<path d="M7828 2000 l2 -460 115 0 115 0 0 460 0 460 -117 0 -118 0 3 -460z"/>
</g>
</svg>
